<svg width="16" height="16" viewBox="0 0 16 16" fill="none" xmlns="http://www.w3.org/2000/svg">
<path d="M2 2V13.3333C2 13.5101 2.07024 13.6797 2.19526 13.8047C2.32029 13.9298 2.48986 14 2.66667 14H14V12.6667H3.33333V2H2Z" fill="#6A7292"/>
<path d="M10.1947 9.80432C10.2565 9.86628 10.33 9.91544 10.4109 9.94898C10.4917 9.98252 10.5784 9.99979 10.666 9.99979C10.7535 9.99979 10.8402 9.98252 10.9211 9.94898C11.002 9.91544 11.0755 9.86628 11.1373 9.80432L14.4707 6.47099L13.528 5.52832L10.666 8.39032L9.13733 6.86165C9.07547 6.79969 9.002 6.75053 8.92112 6.71699C8.84025 6.68345 8.75355 6.66619 8.66599 6.66619C8.57844 6.66619 8.49174 6.68345 8.41087 6.71699C8.32999 6.75053 8.25652 6.79969 8.19466 6.86165L4.86133 10.195L5.80399 11.1377L8.66599 8.27565L10.1947 9.80432Z" fill="#6A7292"/>
</svg>
