<svg width="17" height="16" viewBox="0 0 17 16" fill="none" xmlns="http://www.w3.org/2000/svg">
<path d="M16.3719 3.08712L11.3718 0.58712C11.2561 0.529186 11.1284 0.499023 10.9989 0.499023C10.8695 0.499023 10.7418 0.529186 10.626 0.58712L5.99935 2.90129L1.37185 0.58712C1.24477 0.523618 1.10356 0.493658 0.961646 0.500085C0.819728 0.506512 0.68181 0.549114 0.56099 0.623844C0.44017 0.698573 0.340461 0.80295 0.271332 0.927059C0.202203 1.05117 0.16595 1.19089 0.166016 1.33295V12.1663C0.166016 12.4821 0.344349 12.7705 0.626849 12.9121L5.62685 15.4121C5.74262 15.4701 5.8703 15.5002 5.99977 15.5002C6.12923 15.5002 6.25691 15.4701 6.37268 15.4121L10.9993 13.098L15.6268 15.4113C15.7536 15.4754 15.8947 15.5058 16.0365 15.4995C16.1784 15.4932 16.3163 15.4505 16.4368 15.3755C16.6827 15.223 16.8327 14.9555 16.8327 14.6663V3.83295C16.8327 3.51712 16.6544 3.22879 16.3719 3.08712ZM6.83268 4.34795L10.166 2.68129V11.6513L6.83268 13.318V4.34795ZM1.83268 2.68129L5.16602 4.34795V13.318L1.83268 11.6513V2.68129ZM15.166 13.318L11.8327 11.6513V2.68129L15.166 4.34795V13.318Z" fill="#6A7292"/>
</svg>
