<svg width="16" height="16" viewBox="0 0 16 16" fill="none" xmlns="http://www.w3.org/2000/svg">
<path d="M14.0007 3.99967H12.6673L11.8207 3.15301C11.5144 2.84649 11.1005 2.67184 10.6673 2.66634H9.00065C8.90727 2.29221 8.69361 1.95909 8.3925 1.7182C8.09138 1.47731 7.71949 1.34198 7.33398 1.33301V5.57301C7.36824 6.24629 7.63441 6.88698 8.08732 7.38634C8.83303 8.10322 9.80839 8.53304 10.8407 8.59967L13.1407 7.67967C13.4105 7.57135 13.6535 7.40548 13.8527 7.19362C14.0519 6.98177 14.2025 6.72902 14.294 6.45301L14.6673 5.43301C14.6774 5.36449 14.6774 5.29486 14.6673 5.22634V4.66634C14.6673 4.48953 14.5971 4.31996 14.4721 4.19494C14.347 4.06991 14.1775 3.99967 14.0007 3.99967ZM10.6673 5.33301C10.5355 5.33301 10.4066 5.29391 10.2969 5.22065C10.1873 5.1474 10.1019 5.04328 10.0514 4.92146C10.0009 4.79965 9.98774 4.6656 10.0135 4.53628C10.0392 4.40696 10.1027 4.28817 10.1959 4.19494C10.2891 4.1017 10.4079 4.03821 10.5373 4.01248C10.6666 3.98676 10.8006 3.99996 10.9224 4.05042C11.0443 4.10088 11.1484 4.18633 11.2216 4.29596C11.2949 4.40559 11.334 4.53449 11.334 4.66634C11.334 4.84315 11.2637 5.01272 11.1387 5.13775C11.0137 5.26277 10.8441 5.33301 10.6673 5.33301Z" fill="#6A7292"/>
<path d="M7.58732 7.82667C7.12227 7.31734 6.81839 6.68175 6.71398 6H4.00065C3.82251 6.01179 3.6439 5.98537 3.47679 5.92254C3.30968 5.8597 3.15792 5.76188 3.03168 5.63564C2.90543 5.5094 2.80762 5.35764 2.74478 5.19053C2.68194 5.02342 2.65553 4.84481 2.66732 4.66667C2.66732 4.48986 2.59708 4.32029 2.47206 4.19526C2.34703 4.07024 2.17746 4 2.00065 4C1.82384 4 1.65427 4.07024 1.52925 4.19526C1.40422 4.32029 1.33398 4.48986 1.33398 4.66667C1.34068 5.12931 1.44998 5.58471 1.65398 6C1.87888 6.43608 2.23272 6.79224 2.66732 7.02V14.6667H4.66732V11.3333H8.66732V14.6667H10.6673V9.24667C9.50435 9.15506 8.41222 8.65155 7.58732 7.82667V7.82667Z" fill="#6A7292"/>
</svg>
