<svg width="18" height="18" viewBox="0 0 18 18" fill="none" xmlns="http://www.w3.org/2000/svg">
<path d="M9.6637 1.89912C9.4042 1.40862 8.5972 1.40862 8.3377 1.89912L1.5877 14.6491C1.52694 14.7634 1.49682 14.8915 1.50027 15.0209C1.50372 15.1502 1.54062 15.2765 1.60739 15.3874C1.67416 15.4983 1.76851 15.59 1.88125 15.6535C1.99399 15.7171 2.12127 15.7504 2.2507 15.7501H15.7507C15.88 15.7504 16.0072 15.7171 16.1199 15.6536C16.2326 15.5901 16.3268 15.4984 16.3935 15.3876C16.4602 15.2768 16.4971 15.1506 16.5005 15.0213C16.5039 14.892 16.4737 14.764 16.413 14.6499L9.6637 1.89912ZM9.7507 13.5001H8.2507V12.0001H9.7507V13.5001ZM8.2507 10.5001V6.75012H9.7507L9.75145 10.5001H8.2507Z" fill="#E63761"/>
</svg>
